<svg enable-background="new 0 0 512 512" viewBox="0 0 512 512" xmlns="http://www.w3.org/2000/svg"><path d="m432.901 453.018-11.687 21.65v18.125c0 6.454 5.232 11.687 11.687 11.687s11.687-5.232 11.687-11.687v-18.125z" fill="#029ae6"/><path d="m397.569 420.07 23.646 54.599h23.372l23.646-54.599-35.332-25.544z" fill="#ffd54f"/><path d="m468.233 102.712h-18.781v151.158h18.781c14.933 0 27.04-12.106 27.04-27.04v-97.077c0-14.935-12.106-27.041-27.04-27.041z" fill="#fea001"/><path d="m432.901 27.199c-19.513 0-35.331 15.819-35.331 35.331v92.671l35.331 19.092 35.331-19.092v-92.67c.001-19.514-15.818-35.332-35.331-35.332z" fill="#029ae6"/><path d="m432.901 174.295-35.332 19.092v226.683h70.664v-226.683z" fill="#029ae6"/><path d="m397.567 155.199h70.666v38.191h-70.666z" fill="#ffd54f"/><path d="m445.936 29.692c-4.035-1.603-8.429-2.494-13.034-2.494-19.513 0-35.331 15.819-35.331 35.331v357.539h26.069v-357.538c-.002-14.907 9.236-27.649 22.296-32.838z" opacity=".1"/><path d="m369.597 89.228v412.215h-352.871v-493.923h271.163l22.831 58.877z" fill="#e6e6e6"/><path d="m287.889 7.52v81.708h81.708z" fill="#ccc"/><path d="m432.901 19.679c-23.628 0-42.851 19.223-42.851 42.851v357.539c0 .995.181 2.075.62 2.988l23.026 53.17v16.567c0 10.591 8.616 19.207 19.207 19.207s19.207-8.616 19.207-19.207v-16.567s23.021-53.159 23.029-53.18c.371-.928.616-1.975.616-2.979v-105.723c0-4.153-3.367-7.52-7.52-7.52s-7.52 3.367-7.52 7.52v98.204h-55.625v-211.642h55.624v52.963 30.396c0 4.153 3.367 7.52 7.52 7.52s7.52-3.367 7.52-7.52v-23.71c15.451-3.443 27.04-17.252 27.04-33.726v-62.353c0-4.153-3.367-7.52-7.52-7.52s-7.52 3.367-7.52 7.52v62.353c0 8.1-4.958 15.064-12.001 18.014v-133.106c7.042 2.95 12.001 9.913 12.001 18.013v6.953c0 4.153 3.367 7.52 7.52 7.52s7.52-3.367 7.52-7.52v-6.953c0-16.473-11.589-30.283-27.04-33.726v-33.494c-.002-23.628-19.224-42.852-42.853-42.852zm-27.812 143.042h55.624v23.146h-55.624zm0-100.19c0-15.335 12.476-27.811 27.811-27.811s27.811 12.476 27.811 27.811v40.181 44.971h-55.624zm31.979 430.263c0 2.298-1.869 4.167-4.167 4.167s-4.167-1.869-4.167-4.167v-10.605h8.334zm19.713-65.206-17.132 39.56h-13.497l-17.132-39.56z"/><path d="m377.098 88.707c-.123-1.787-.877-3.563-2.184-4.797 0 0-81.705-81.704-81.706-81.706-1.38-1.379-3.365-2.204-5.319-2.204h-196.784c-4.153 0-7.52 3.367-7.52 7.52s3.367 7.52 7.52 7.52h189.264v74.189c0 4.153 3.367 7.52 7.52 7.52h74.189v397.174h-43.584c-4.153 0-7.52 3.367-7.52 7.52s3.367 7.52 7.52 7.52h51.104c1.994 0 3.907-.792 5.317-2.203 1.411-1.411 2.203-3.323 2.203-5.317 0 0 0-412.095 0-412.215-.002-.173-.008-.348-.02-.521zm-25.655-6.999h-56.034v-56.034z"/><path d="m295.933 501.443c0-4.153-3.367-7.52-7.52-7.52h-264.167v-478.883h36.78c4.153 0 7.52-3.367 7.52-7.52s-3.367-7.52-7.52-7.52h-44.3c-4.153 0-7.52 3.367-7.52 7.52v493.923c0 4.153 3.367 7.52 7.52 7.52h271.688c4.152 0 7.519-3.367 7.519-7.52z"/><path d="m66.285 89.228c0 4.153 3.367 7.52 7.52 7.52h163.977c4.153 0 7.52-3.367 7.52-7.52s-3.367-7.52-7.52-7.52h-163.977c-4.153 0-7.52 3.367-7.52 7.52z"/><path d="m73.805 190.875h237.713c4.153 0 7.52-3.367 7.52-7.52 0-4.154-3.367-7.52-7.52-7.52h-237.713c-4.153 0-7.52 3.366-7.52 7.52 0 4.152 3.367 7.52 7.52 7.52z"/><path d="m73.805 233.659h237.713c4.153 0 7.52-3.367 7.52-7.52s-3.367-7.52-7.52-7.52h-237.713c-4.153 0-7.52 3.367-7.52 7.52s3.367 7.52 7.52 7.52z"/><path d="m73.805 276.444h237.713c4.153 0 7.52-3.366 7.52-7.52 0-4.153-3.367-7.52-7.52-7.52h-237.713c-4.153 0-7.52 3.367-7.52 7.52 0 4.154 3.367 7.52 7.52 7.52z"/><path d="m73.805 319.23h237.713c4.153 0 7.52-3.367 7.52-7.52s-3.367-7.52-7.52-7.52h-237.713c-4.153 0-7.52 3.367-7.52 7.52s3.367 7.52 7.52 7.52z"/><path d="m231.81 460.538h79.708c4.153 0 7.52-3.367 7.52-7.52s-3.367-7.52-7.52-7.52h-79.708c-4.153 0-7.52 3.367-7.52 7.52s3.367 7.52 7.52 7.52z"/></svg>