<svg viewBox="0 0 400 300" xmlns="http://www.w3.org/2000/svg"><rect fill="#68e1fd" height="146.91" rx="5.64" width="227.04" x="86.48" y="76.55"/><path d="m307.88 224.45h-215.76a6.65 6.65 0 0 1 -6.64-6.64v-135.62a6.65 6.65 0 0 1 6.64-6.64h215.76a6.65 6.65 0 0 1 6.64 6.64v135.62a6.65 6.65 0 0 1 -6.64 6.64zm-215.76-146.9a4.64 4.64 0 0 0 -4.64 4.64v135.62a4.64 4.64 0 0 0 4.64 4.64h215.76a4.64 4.64 0 0 0 4.64-4.64v-135.62a4.64 4.64 0 0 0 -4.64-4.64z" fill="#093f68"/><path d="m86.48 104.13h227a0 0 0 0 1 0 0v113.68a5.64 5.64 0 0 1 -5.64 5.64h-215.72a5.64 5.64 0 0 1 -5.64-5.64v-113.68a0 0 0 0 1 0 0z" fill="#fff"/><path d="m307.88 224.45h-215.76a6.65 6.65 0 0 1 -6.64-6.64v-113.68a1 1 0 0 1 1-1h227a1 1 0 0 1 1 1v113.68a6.65 6.65 0 0 1 -6.6 6.64zm-220.4-119.32v112.68a4.64 4.64 0 0 0 4.64 4.64h215.76a4.64 4.64 0 0 0 4.64-4.64v-112.68z" fill="#093f68"/><path d="m139.79 224.45a1 1 0 0 1 -1-1v-146.9a1 1 0 1 1 2 0v146.9a1 1 0 0 1 -1 1z" fill="#093f68"/><path d="m200 224.45a1 1 0 0 1 -1-1v-146.9a1 1 0 0 1 2 0v146.9a1 1 0 0 1 -1 1z" fill="#093f68"/><path d="m260.21 224.45a1 1 0 0 1 -1-1v-146.9a1 1 0 0 1 2 0v146.9a1 1 0 0 1 -1 1z" fill="#093f68"/><path d="m97.83 116.53h29.25v27.11h-29.25z" fill="#ffbc0e"/><path d="m127.08 144.65h-29.25a1 1 0 0 1 -1-1v-27.12a1 1 0 0 1 1-1h29.25a1 1 0 0 1 1 1v27.12a1 1 0 0 1 -1 1zm-28.25-2h27.25v-25.12h-27.25z" fill="#093f68"/><path d="m156.07 116.53h29.25v27.11h-29.25z" fill="#ffbc0e"/><path d="m185.32 144.65h-29.25a1 1 0 0 1 -1-1v-27.12a1 1 0 0 1 1-1h29.25a1 1 0 0 1 1 1v27.12a1 1 0 0 1 -1 1zm-28.25-2h27.25v-25.12h-27.25z" fill="#093f68"/><path d="m156.07 150.24h29.25v27.11h-29.25z" fill="#f56132"/><path d="m185.32 178.35h-29.25a1 1 0 0 1 -1-1v-27.11a1 1 0 0 1 1-1h29.25a1 1 0 0 1 1 1v27.11a1 1 0 0 1 -1 1zm-28.25-2h27.25v-25.11h-27.25z" fill="#093f68"/><path d="m215.52 116.53h29.25v27.11h-29.25z" fill="#ffbc0e"/><path d="m244.78 144.65h-29.26a1 1 0 0 1 -1-1v-27.12a1 1 0 0 1 1-1h29.26a1 1 0 0 1 1 1v27.12a1 1 0 0 1 -1 1zm-28.26-2h27.26v-25.12h-27.26z" fill="#093f68"/><path d="m215.52 150.24h29.25v27.11h-29.25z" fill="#f56132"/><path d="m244.78 178.35h-29.26a1 1 0 0 1 -1-1v-27.11a1 1 0 0 1 1-1h29.26a1 1 0 0 1 1 1v27.11a1 1 0 0 1 -1 1zm-28.26-2h27.26v-25.11h-27.26z" fill="#093f68"/><path d="m272.01 116.53h29.25v27.11h-29.25z" fill="#70cc40"/><path d="m301.26 144.65h-29.26a1 1 0 0 1 -1-1v-27.12a1 1 0 0 1 1-1h29.25a1 1 0 0 1 1 1v27.12a1 1 0 0 1 -.99 1zm-28.25-2h27.25v-25.12h-27.26z" fill="#093f68"/><path d="m215.52 183.94h29.25v27.11h-29.25z" fill="#70cc40"/><g fill="#093f68"><path d="m244.78 212.05h-29.26a1 1 0 0 1 -1-1v-27.11a1 1 0 0 1 1-1h29.26a1 1 0 0 1 1 1v27.11a1 1 0 0 1 -1 1zm-28.26-2h27.26v-25.11h-27.26z"/><path d="m122 124.31h-18.94a1 1 0 0 1 0-2h18.94a1 1 0 0 1 0 2z"/><path d="m122 130.29h-18.94a1 1 0 0 1 0-2h18.94a1 1 0 0 1 0 2z"/><path d="m117.78 136.26h-14.72a1 1 0 0 1 0-2h14.72a1 1 0 0 1 0 2z"/><path d="m180.15 158.82h-18.91a1 1 0 0 1 0-2h18.91a1 1 0 1 1 0 2z"/><path d="m180.15 164.79h-18.91a1 1 0 0 1 0-2h18.91a1 1 0 0 1 0 2z"/><path d="m176 170.77h-14.76a1 1 0 0 1 0-2h14.76a1 1 0 0 1 0 2z"/><path d="m239.6 125.11h-18.9a1 1 0 0 1 0-2h18.9a1 1 0 0 1 0 2z"/><path d="m239.6 131.09h-18.9a1 1 0 0 1 0-2h18.9a1 1 0 0 1 0 2z"/><path d="m235.41 137.07h-14.71a1 1 0 0 1 0-2h14.71a1 1 0 1 1 0 2z"/><path d="m239.6 192.52h-18.9a1 1 0 0 1 0-2h18.9a1 1 0 0 1 0 2z"/><path d="m239.6 198.5h-18.9a1 1 0 0 1 0-2h18.9a1 1 0 1 1 0 2z"/><path d="m235.41 204.47h-14.71a1 1 0 0 1 0-2h14.71a1 1 0 0 1 0 2z"/><path d="m180.15 128.1h-18.91a1 1 0 0 1 0-2h18.91a1 1 0 0 1 0 2z"/><path d="m174.41 134.08h-13.17a1 1 0 0 1 0-2h13.17a1 1 0 0 1 0 2z"/><path d="m296.09 128.1h-18.91a1 1 0 0 1 0-2h18.91a1 1 0 0 1 0 2z"/><path d="m290.34 134.08h-13.16a1 1 0 0 1 0-2h13.16a1 1 0 0 1 0 2z"/><path d="m239.6 161.81h-18.9a1 1 0 0 1 0-2h18.9a1 1 0 0 1 0 2z"/><path d="m233.86 167.78h-13.16a1 1 0 0 1 0-2h13.16a1 1 0 0 1 0 2z"/></g><path d="m127.08 161.81h-27.23a1 1 0 1 1 0-2h27.23a1 1 0 1 1 0 2z" fill="#dfeaef"/><path d="m127.08 170.77h-27.23a1 1 0 0 1 0-2h27.23a1 1 0 1 1 0 2z" fill="#dfeaef"/><path d="m117.78 179.73h-17.93a1 1 0 0 1 0-2h17.93a1 1 0 0 1 0 2z" fill="#dfeaef"/><path d="m292.14 212.05h-17.14a1 1 0 0 1 0-2h17.12a1 1 0 0 1 0 2z" fill="#dfeaef"/><path d="m301.26 202.44h-26.26a1 1 0 0 1 0-2h26.24a1 1 0 0 1 0 2z" fill="#dfeaef"/><path d="m183.69 190.31h-23.91a1 1 0 0 1 0-2h23.91a1 1 0 0 1 0 2z" fill="#dfeaef"/><path d="m121 90.42h-18.89a1 1 0 0 1 0-2h18.89a1 1 0 0 1 0 2z" fill="#093f68"/><path d="m176 90.42h-13.72a1 1 0 0 1 0-2h13.72a1 1 0 0 1 0 2z" fill="#093f68"/><path d="m245 90.42h-29.71a1 1 0 0 1 0-2h29.71a1 1 0 0 1 0 2z" fill="#093f68"/><path d="m302 90.42h-5.86a1 1 0 0 1 0-2h5.86a1 1 0 0 1 0 2z" fill="#093f68"/><path d="m290.34 90.42h-14.79a1 1 0 0 1 0-2h14.79a1 1 0 0 1 0 2z" fill="#093f68"/></svg>